<mxfile host="app.diagrams.net" agent="Mozilla/5.0 (X11; Linux x86_64; rv:134.0) Gecko/20100101 Firefox/134.0" version="26.0.8">
  <diagram name="第 1 页" id="Ojf0WgrVY4Fr5bgWz0aU">
    <mxGraphModel dx="875" dy="506" grid="1" gridSize="10" guides="1" tooltips="1" connect="1" arrows="1" fold="1" page="1" pageScale="1" pageWidth="827" pageHeight="1169" math="0" shadow="0">
      <root>
        <mxCell id="0" />
        <mxCell id="1" parent="0" />
        <mxCell id="iO5bGwzLUC8RyOHxO-7Q-1" value="file-beat" style="rounded=0;whiteSpace=wrap;html=1;" vertex="1" parent="1">
          <mxGeometry x="140" y="230" width="90" height="50" as="geometry" />
        </mxCell>
        <mxCell id="iO5bGwzLUC8RyOHxO-7Q-4" value="file-beat" style="rounded=0;whiteSpace=wrap;html=1;" vertex="1" parent="1">
          <mxGeometry x="140" y="290" width="90" height="50" as="geometry" />
        </mxCell>
        <mxCell id="iO5bGwzLUC8RyOHxO-7Q-5" value="&lt;div&gt;&lt;font style=&quot;font-size: 18px;&quot;&gt;Elastic&lt;/font&gt;&lt;/div&gt;&lt;div&gt;&lt;font style=&quot;font-size: 18px;&quot;&gt;Search&lt;br&gt;&lt;/font&gt;&lt;/div&gt;" style="rounded=0;whiteSpace=wrap;html=1;" vertex="1" parent="1">
          <mxGeometry x="320" y="230" width="90" height="180" as="geometry" />
        </mxCell>
        <mxCell id="iO5bGwzLUC8RyOHxO-7Q-8" value="... ..." style="text;html=1;align=center;verticalAlign=middle;whiteSpace=wrap;rounded=0;" vertex="1" parent="1">
          <mxGeometry x="155" y="370" width="60" height="30" as="geometry" />
        </mxCell>
        <mxCell id="iO5bGwzLUC8RyOHxO-7Q-9" value="" style="shape=flexArrow;endArrow=classic;html=1;rounded=0;" edge="1" parent="1">
          <mxGeometry width="50" height="50" relative="1" as="geometry">
            <mxPoint x="240" y="260" as="sourcePoint" />
            <mxPoint x="300" y="260" as="targetPoint" />
          </mxGeometry>
        </mxCell>
        <mxCell id="iO5bGwzLUC8RyOHxO-7Q-11" value="" style="shape=flexArrow;endArrow=classic;html=1;rounded=0;" edge="1" parent="1">
          <mxGeometry width="50" height="50" relative="1" as="geometry">
            <mxPoint x="240" y="314.5" as="sourcePoint" />
            <mxPoint x="300" y="314.5" as="targetPoint" />
          </mxGeometry>
        </mxCell>
        <mxCell id="iO5bGwzLUC8RyOHxO-7Q-12" value="&lt;div&gt;Assistant&lt;/div&gt;&lt;div&gt;server&lt;br&gt;&lt;/div&gt;" style="rounded=0;whiteSpace=wrap;html=1;" vertex="1" parent="1">
          <mxGeometry x="500" y="230" width="160" height="70" as="geometry" />
        </mxCell>
        <mxCell id="iO5bGwzLUC8RyOHxO-7Q-13" value="Llama Cpp" style="rounded=0;whiteSpace=wrap;html=1;" vertex="1" parent="1">
          <mxGeometry x="500" y="340" width="160" height="70" as="geometry" />
        </mxCell>
        <mxCell id="iO5bGwzLUC8RyOHxO-7Q-14" value="" style="shape=flexArrow;endArrow=classic;html=1;rounded=0;" edge="1" parent="1">
          <mxGeometry width="50" height="50" relative="1" as="geometry">
            <mxPoint x="430" y="264.5" as="sourcePoint" />
            <mxPoint x="490" y="264.5" as="targetPoint" />
          </mxGeometry>
        </mxCell>
        <mxCell id="iO5bGwzLUC8RyOHxO-7Q-21" value="" style="shape=flexArrow;endArrow=classic;startArrow=classic;html=1;rounded=0;startWidth=10;startSize=2.7;endWidth=10;endSize=3.668;width=14.4;" edge="1" parent="1">
          <mxGeometry width="100" height="100" relative="1" as="geometry">
            <mxPoint x="580" y="335" as="sourcePoint" />
            <mxPoint x="579.8" y="305" as="targetPoint" />
          </mxGeometry>
        </mxCell>
        <mxCell id="iO5bGwzLUC8RyOHxO-7Q-23" value="" style="shape=flexArrow;endArrow=classic;html=1;rounded=0;" edge="1" parent="1">
          <mxGeometry width="50" height="50" relative="1" as="geometry">
            <mxPoint x="680" y="270" as="sourcePoint" />
            <mxPoint x="720" y="270" as="targetPoint" />
          </mxGeometry>
        </mxCell>
        <mxCell id="iO5bGwzLUC8RyOHxO-7Q-25" value="report generation" style="rounded=0;whiteSpace=wrap;html=1;" vertex="1" parent="1">
          <mxGeometry x="740" y="235" width="120" height="60" as="geometry" />
        </mxCell>
      </root>
    </mxGraphModel>
  </diagram>
</mxfile>
